<svg id="svg" version="1.1" xmlns="http://www.w3.org/2000/svg" xmlns:xlink="http://www.w3.org/1999/xlink" width="400" height="533.3333333333334" viewBox="0, 0, 400,533.3333333333334"><g id="svgg"><path id="path1" d="M77.938 86.930 L 77.938 91.127 85.552 91.127 C 98.553 91.128,104.709 92.163,111.349 95.467 C 122.332 100.931,125.707 107.446,127.613 126.859 C 128.009 130.898,128.216 374.605,127.831 384.058 C 126.888 407.230,122.554 415.950,109.122 421.699 C 103.488 424.110,88.255 426.294,86.331 424.966 C 86.018 424.750,85.963 422.479,85.907 407.443 L 85.842 390.168 81.770 390.168 L 77.698 390.168 77.698 407.297 C 77.698 422.549,77.657 424.467,77.321 424.803 C 76.985 425.139,75.067 425.180,59.815 425.180 L 42.686 425.180 42.686 429.376 L 42.686 433.573 59.904 433.573 C 72.976 433.573,77.192 433.642,77.410 433.861 C 77.628 434.079,77.698 438.241,77.698 451.127 L 77.698 468.106 81.775 468.106 L 85.851 468.106 85.851 451.454 C 85.851 441.216,85.941 434.567,86.085 434.188 L 86.319 433.573 156.829 433.573 L 227.338 433.573 227.338 429.407 L 227.338 425.240 218.165 425.113 C 205.233 424.934,200.478 424.101,193.885 420.857 C 181.730 414.878,177.957 406.206,176.980 382.014 C 176.725 375.699,176.635 269.853,176.884 269.204 C 177.091 268.666,177.321 268.692,183.941 270.016 C 251.702 283.566,297.744 273.737,324.875 239.928 C 338.537 222.904,344.954 202.629,344.544 177.779 C 344.271 161.209,340.691 147.919,333.023 135.012 C 324.937 121.399,310.465 107.414,296.583 99.797 C 295.824 99.381,294.633 98.727,293.936 98.342 C 280.048 90.695,260.021 85.777,234.772 83.816 C 221.501 82.785,217.481 82.736,146.103 82.735 L 77.938 82.734 77.938 86.930 M223.981 103.445 C 250.436 107.377,269.264 121.942,279.203 146.163 C 292.847 179.413,287.906 217.118,267.027 239.082 C 247.401 259.727,227.945 264.047,187.050 256.836 C 179.291 255.468,177.411 255.075,177.089 254.753 C 176.591 254.255,176.554 108.126,177.052 107.712 C 178.175 106.780,195.570 103.703,204.916 102.784 C 208.374 102.443,219.941 102.845,223.981 103.445 " stroke="none" fill="#ff0310" fill-rule="evenodd"></path></g></svg>